<svg width="1024" height="1024" viewBox="0 0 1024 1024" xmlns="http://www.w3.org/2000/svg">
<path d="M 476.266 920.440 A 410.000 410.000 0 0 1 103.560 547.734 L 356.793 525.579 A 155.800 155.800 0 0 0 498.421 667.207 Z" fill="#0B1220" stroke="none"/>
<path d="M 920.440 547.734 A 410.000 410.000 0 0 1 547.734 920.440 L 525.579 667.207 A 155.800 155.800 0 0 0 667.207 525.579 Z" fill="#0B1220" stroke="none"/>
<path d="M 547.734 103.560 A 410.000 410.000 0 0 1 920.440 476.266 L 667.207 498.421 A 155.800 155.800 0 0 0 525.579 356.793 Z" fill="#0B1220" stroke="none"/>
<path d="M 103.560 476.266 A 410.000 410.000 0 0 1 476.266 103.560 L 498.421 356.793 A 155.800 155.800 0 0 0 356.793 498.421 Z" fill="#0B1220" stroke="none"/>
</svg>